<svg width="16" height="16" viewBox="0 0 16 16" fill="none" xmlns="http://www.w3.org/2000/svg">
  <g clip-path="url(#clip0_68_2)">
    <path fill-rule="evenodd" clip-rule="evenodd"
      d="M7.1829 9.37167C5.5006 10.3653 3.29746 10.1393 1.85202 8.6939C0.13881 6.98069 0.13881 4.20302 1.85202 2.4898C3.56524 0.77659 6.34291 0.77659 8.05612 2.4898C9.20431 3.63799 9.58298 5.26429 9.19215 6.72785L11.9337 9.46936L13.4847 11.0204L15.1041 12.6398C15.4947 13.0303 15.4947 13.6635 15.1041 14.054L14.5454 14.6128C13.9596 15.1986 13.0098 15.1986 12.424 14.6128L11.9337 14.1225L10.7704 15.2857C10.5563 15.4999 10.209 15.4999 9.99489 15.2857C9.78074 15.0716 9.78074 14.7244 9.99489 14.5102L11.1582 13.3469L11.1581 13.3469L10.3826 12.5714L9.53873 13.4153C9.1482 13.8058 8.51504 13.8058 8.12451 13.4153L7.9877 13.2785C7.59718 12.888 7.59718 12.2548 7.9877 11.8643L8.83162 11.0204L7.1829 9.37167ZM3.40304 7.14284C4.25965 7.99944 5.64848 7.99944 6.50509 7.14284C7.3617 6.28623 7.3617 4.8974 6.50509 4.04079C5.64848 3.18418 4.25965 3.18418 3.40304 4.04079C2.54644 4.8974 2.54644 6.28623 3.40304 7.14284Z"
      fill="#705015" />
    <path fill-rule="evenodd" clip-rule="evenodd"
      d="M7.57068 8.98392C5.88838 9.9775 3.68524 9.75157 2.23981 8.30614C0.526597 6.59293 0.526597 3.81526 2.23981 2.10205C3.95302 0.388834 6.73069 0.388834 8.44391 2.10205C9.5921 3.25024 9.97077 4.87655 9.57993 6.34011L12.3215 9.08163L13.8725 10.6327L15.0358 11.7959C15.6782 12.4384 15.6782 13.48 15.0358 14.1225C14.3933 14.7649 13.3517 14.7649 12.7092 14.1225L12.3215 13.7347L11.1582 14.898C10.944 15.1122 10.5968 15.1122 10.3827 14.898C10.1685 14.6839 10.1685 14.3366 10.3827 14.1225L11.546 12.9592L11.5459 12.9592L10.7704 12.1837L9.92652 13.0276C9.536 13.4181 8.90283 13.4181 8.51231 13.0276L8.3755 12.8908C7.98497 12.5003 7.98497 11.8671 8.3755 11.4766L9.21941 10.6327L7.57068 8.98392ZM3.79084 6.75511C4.64744 7.61171 6.03628 7.61171 6.89289 6.75511C7.74949 5.8985 7.74949 4.50966 6.89288 3.65306C6.03628 2.79645 4.64744 2.79645 3.79084 3.65306C2.93423 4.50966 2.93423 5.8985 3.79084 6.75511Z"
      fill="#FFBC40" />
  </g>
  <defs>
    <clipPath id="clip0_68_2">
      <rect width="16" height="16" fill="white" />
    </clipPath>
  </defs>
</svg>